<?xml version="1.0" encoding="utf-8"?>
<svg viewBox="74 68 350 350" xmlns="http://www.w3.org/2000/svg" xmlns:bx="https://boxy-svg.com">
  <defs>
    <pattern id="pattern-0" x="0" y="0" width="20" height="20" patternUnits="userSpaceOnUse" viewBox="0 0 100 100">
      <path d="M 0 0 L 50 0 L 50 100 L 0 100 Z" style="fill: black;"/>
    </pattern>
  </defs>
  <rect transform="matrix(0, 1, -1, 0, 462.368011, 23.224503)" x="65.315" y="59.708" width="308.921" height="307.32" rx="40" ry="40" style="fill: none;"/>
  <path d="M 247 318 m -109.203 0 a 109.203 109.152 0 1 0 218.406 0 a 109.203 109.152 0 1 0 -218.406 0 Z M 247 318 m -65.522 0 a 65.522 65.491 0 0 1 131.044 0 a 65.522 65.491 0 0 1 -131.044 0 Z" transform="matrix(-0.654231, 0.756295, -0.752919, -0.658133, 650.023929, 265.481992)" bx:shape="ring 247 318 65.522 65.491 109.203 109.152 1@2e44ee39"/>
</svg>